<svg xmlns="http://www.w3.org/2000/svg" width="251" height="41" viewBox="0 0 251 41" fill="none"><path d="M6.89736 33.8042C6.78017 33.814 6.62392 33.7773 6.42861 33.6943C5.94521 33.4551 5.68154 33.2036 5.6376 32.9399C5.59853 32.6763 5.57656 32.5151 5.57168 32.4565C5.44961 30.9673 6.68008 28.6138 9.26308 25.396C10.3764 23.9702 11.0404 23.0278 11.2553 22.5688C10.8646 22.8569 10.4911 23.1572 10.1347 23.4697C9.71963 23.8311 9.27285 24.1802 8.79433 24.5171C8.21328 24.9126 7.63467 25.3179 7.05849 25.7329C6.08193 26.4458 5.06142 27.1318 3.99697 27.791C3.43056 28.1279 2.89834 28.3159 2.40029 28.355C2.1415 28.3794 1.89248 28.355 1.65322 28.2817C1.28701 28.1841 0.986717 27.918 0.752342 27.4834C0.6791 27.3271 0.637596 27.1709 0.627831 27.0146C0.613182 26.8438 0.635155 26.6729 0.693748 26.502C0.815819 26.1846 1.00381 25.8843 1.25771 25.6011C1.50674 25.3179 1.75576 25.064 2.00478 24.8394C2.93252 23.9165 3.79189 23.2744 4.58291 22.9131C5.34463 22.5664 6.06728 22.3638 6.75088 22.3052C7.19521 22.271 7.66152 22.2783 8.1498 22.3271C8.41348 22.3564 8.65762 22.3638 8.88223 22.3491C9.4291 22.3003 10.037 22.0195 10.706 21.5068C11.6483 20.8037 12.5761 20.0811 13.4892 19.3389C15.0517 18.0303 16.5629 16.668 18.0229 15.252L18.8578 14.4536C19.3852 13.9067 19.827 13.6187 20.1835 13.5894C20.4862 13.5649 20.7865 13.7139 21.0844 14.0361C21.2162 14.1777 21.287 14.3169 21.2968 14.4536C21.3017 14.5122 21.2968 14.5684 21.2821 14.6221C21.2284 14.8125 21.1161 14.9883 20.9452 15.1494C20.8524 15.2324 20.5985 15.4351 20.1835 15.7573C16.9901 18.355 13.7675 21.8486 10.5155 26.2383C8.29385 29.1143 7.19521 31.2188 7.21963 32.5518L7.23428 32.8008C7.27334 33.3086 7.22939 33.6113 7.10244 33.709C7.02431 33.7676 6.95596 33.7993 6.89736 33.8042ZM2.9789 26.4946C3.11074 26.4849 3.27187 26.4287 3.4623 26.3262C3.55019 26.3018 3.95547 26.0771 4.67812 25.6523C6.38711 24.6611 7.24404 24.0386 7.24892 23.7847C7.24404 23.7261 7.18789 23.7017 7.08047 23.7114C6.92422 23.7212 6.73135 23.7651 6.50185 23.8433C6.14053 23.9702 5.84756 24.0874 5.62295 24.1948C4.7831 24.5806 4.07998 25.0029 3.51357 25.4619C3.17178 25.7354 2.93984 26.0186 2.81777 26.3115L2.81045 26.3921C2.82021 26.4702 2.87637 26.5044 2.9789 26.4946ZM17.3175 28.2231C15.8917 28.2231 14.8907 27.5591 14.3145 26.231C14.1681 25.8452 14.0948 25.4717 14.0948 25.1104C14.0948 24.8662 14.1266 24.6294 14.19 24.3999C14.3512 23.8237 14.6393 23.2939 15.0543 22.8105C15.4742 22.3271 15.9381 21.9097 16.4459 21.5581C17.2662 20.9771 18.0621 20.6865 18.8336 20.6865C19.3219 20.6865 19.7687 20.8037 20.1739 21.0381C20.6183 21.3408 20.8478 21.5947 20.8624 21.7998C20.8819 22.0049 20.8917 22.1221 20.8917 22.1514C20.8917 22.5078 20.7501 22.8813 20.4669 23.272C20.1104 23.6919 19.627 24.0703 19.0167 24.4072C18.2403 24.8369 17.586 25.0518 17.0538 25.0518C16.8194 25.0518 16.5948 25.0249 16.38 24.9712C16.1993 24.9321 16.0431 24.9126 15.9112 24.9126H15.838C15.6476 24.9565 15.5475 25.0347 15.5377 25.147C15.5328 25.2544 15.5304 25.3228 15.5304 25.3521C15.5304 25.5278 15.5719 25.7134 15.6549 25.9087C15.7525 26.1284 15.8795 26.2969 16.0357 26.4141C16.3531 26.6094 16.7364 26.707 17.1856 26.707C17.7911 26.707 18.5235 26.5581 19.3829 26.2603C20.3985 25.9136 21.629 25.374 23.0743 24.6416C23.294 24.5293 23.4942 24.4316 23.6749 24.3486C23.7579 24.2949 24.002 24.1777 24.4073 23.9971C24.837 23.8115 25.169 23.7188 25.4034 23.7188C25.5841 23.7188 25.6842 23.7969 25.7037 23.9531C25.6891 24.2852 25.0958 24.8223 23.9239 25.5645C22.1661 26.6826 20.6183 27.4663 19.2804 27.9155C18.6163 28.1206 17.962 28.2231 17.3175 28.2231ZM17.127 23.3232C17.2833 23.3232 17.5372 23.2402 17.8888 23.0742C18.0645 22.9912 18.1915 22.9277 18.2696 22.8838C18.8409 22.5713 19.1266 22.3833 19.1266 22.3198C19.1266 22.3052 19.1119 22.2979 19.0826 22.2979C19.0045 22.2979 18.858 22.3345 18.6432 22.4077C17.6959 22.7397 17.1466 23.0352 16.9952 23.2939C17.0294 23.3135 17.0733 23.3232 17.127 23.3232ZM21.761 33.6797C21.6438 33.6797 21.5267 33.6724 21.4095 33.6577C20.9456 33.5894 20.5843 33.3086 20.3255 32.8154C20.2278 32.5664 20.179 32.3223 20.179 32.083C20.179 31.9268 20.1985 31.7729 20.2376 31.6216C20.3987 30.9624 20.8333 30.2812 21.5413 29.5781C22.0296 29.0752 22.5569 28.6455 23.1233 28.2891C23.6897 27.9375 24.2854 27.6079 24.9104 27.3003L25.0057 27.249C25.4256 26.9805 25.6355 26.7461 25.6355 26.5459C25.6355 26.3408 25.5281 26.1089 25.3133 25.8501C25.1961 25.689 25.0765 25.4985 24.9544 25.2788C24.6126 24.6587 24.4393 24.1875 24.4344 23.8652C24.4246 23.5381 24.4197 23.3647 24.4197 23.3452C24.4197 22.7397 24.6541 22.1685 25.1229 21.6313C25.6307 21.1138 26.2679 20.623 27.0345 20.1592C27.806 19.6904 28.5335 19.3291 29.2171 19.0752C29.4417 18.9971 29.6468 18.958 29.8323 18.958C30.3108 18.958 30.7186 19.2339 31.0555 19.7856C31.1482 19.9565 31.1946 20.1128 31.1946 20.2544C31.1946 20.3569 31.1702 20.4546 31.1214 20.5474C31.0042 20.7622 30.8064 20.9355 30.5281 21.0674C30.3279 21.1309 30.1424 21.1626 29.9715 21.1626C29.8787 21.1626 29.7933 21.1577 29.7151 21.1479C29.637 21.1382 29.554 21.1333 29.4661 21.1333C29.3587 21.1333 29.2439 21.1406 29.1219 21.1553C28.8973 21.1846 28.575 21.2969 28.1551 21.4922C27.5643 21.7607 27.0735 22.0562 26.6829 22.3784C26.2923 22.7007 26.0677 23.0034 26.0091 23.2866C25.9505 23.5649 25.9212 23.7627 25.9212 23.8799C25.9212 24.2656 26.0384 24.7148 26.2728 25.2275C26.3216 25.335 26.3973 25.4668 26.4998 25.623C26.6072 25.7744 26.7195 25.8965 26.8367 25.9893C26.9588 26.082 27.0687 26.1284 27.1663 26.1284C27.2005 26.1284 27.2347 26.1235 27.2688 26.1138C27.7767 25.938 28.2601 25.7451 28.719 25.5352C29.2903 25.2715 29.9007 25.0396 30.5501 24.8394C31.053 24.6831 31.534 24.5195 31.993 24.3486C32.2127 24.2607 32.4935 24.168 32.8353 24.0703C33.4505 23.8945 33.9412 23.8066 34.3074 23.8066C34.449 23.8066 34.5784 23.8213 34.6956 23.8506C34.8763 23.8945 34.9666 23.9971 34.9666 24.1582C34.9666 24.2021 34.9617 24.2485 34.952 24.2974C34.7713 24.8687 33.9412 25.3423 32.4617 25.7183C31.8025 25.8892 31.2117 26.0649 30.6893 26.2456C30.6795 26.2456 30.6722 26.248 30.6673 26.2529C28.9095 26.8584 27.8719 27.354 27.5545 27.7397C27.5398 27.7886 27.5325 27.8447 27.5325 27.9082C27.5325 27.9814 27.5423 28.0645 27.5618 28.1572C27.5862 28.3037 27.5984 28.4722 27.5984 28.6626C27.6033 28.8579 27.5594 29.0825 27.4666 29.3364L27.408 29.4756C26.9441 30.4033 26.302 31.2065 25.4817 31.8853C24.6614 32.5688 23.7752 33.0962 22.823 33.4673C22.4666 33.6089 22.1126 33.6797 21.761 33.6797ZM21.9515 31.9805C22.1028 31.9805 22.3738 31.873 22.7645 31.6582C23.243 31.3994 23.7752 31.0405 24.3611 30.5815C25.3133 29.8394 25.8528 29.2217 25.9798 28.7285V28.6992C25.9798 28.5625 25.9261 28.4941 25.8187 28.4941C25.7356 28.4941 25.6233 28.5332 25.4817 28.6113C25.0276 28.8408 24.4637 29.2192 23.7898 29.7466C23.1111 30.2739 22.6009 30.7256 22.2591 31.1016C22.0931 31.2871 21.9588 31.4897 21.8562 31.7095C21.8318 31.7729 21.8196 31.8267 21.8196 31.8706C21.8196 31.9438 21.8636 31.9805 21.9515 31.9805ZM34.2026 28.6113C33.2212 28.6113 32.5498 28.1523 32.1885 27.2344C32.0664 26.9219 32.0054 26.624 32.0054 26.3408C32.0054 26.1211 32.0395 25.9087 32.1079 25.7036C32.2495 25.2886 32.4668 24.8955 32.7598 24.5244C32.9941 24.2314 33.375 23.8042 33.9023 23.2427C34.7764 22.2515 35.4795 21.7021 36.0117 21.5947C36.2607 21.6191 36.5049 21.7388 36.7441 21.9536C36.998 22.1929 37.125 22.4395 37.125 22.6934C37.125 22.8398 37.0664 22.9839 36.9492 23.1255C36.7686 23.3062 36.4829 23.5552 36.0923 23.8726C34.5688 25.1421 33.8071 26.0405 33.8071 26.5679L33.8145 26.6704C33.8975 26.8267 34.0659 26.9048 34.3198 26.9048C34.7544 26.9048 35.3525 26.751 36.1143 26.4434L36.1875 26.4214C37.1055 26.0503 38.0063 25.6353 38.8901 25.1763C39.8423 24.6782 40.8066 24.2412 41.7832 23.8652C41.8857 23.8262 41.9712 23.8066 42.0395 23.8066C42.186 23.8066 42.269 23.9263 42.2886 24.1655C42.2837 24.4634 42.1445 24.7344 41.8711 24.9785C41.5977 25.2178 41.3242 25.4204 41.0508 25.5864L40.9482 25.6597C39.8398 26.3579 38.6826 27 37.4766 27.5859C36.1533 28.2695 35.062 28.6113 34.2026 28.6113ZM38.707 19.4927C38.2285 19.4927 37.8672 19.2217 37.623 18.6797C37.5547 18.543 37.5205 18.4062 37.5205 18.2695C37.5205 18.1377 37.5547 18.0059 37.623 17.874C37.7256 17.7666 37.8281 17.708 37.9307 17.6982C38.0332 17.6836 38.1138 17.6763 38.1724 17.6763C38.3921 17.6763 38.6582 17.7349 38.9707 17.8521C39.7227 18.1499 40.0986 18.4331 40.0986 18.7017C40.0986 18.9556 39.8105 19.1875 39.2344 19.3975C39.0439 19.4609 38.8682 19.4927 38.707 19.4927ZM36.7858 36.0454C36.5124 36.0454 36.2683 35.9844 36.0534 35.8623C35.8044 35.7012 35.6359 35.5303 35.548 35.3496C35.4602 35.1738 35.4162 35.0298 35.4162 34.9175C35.4162 34.5562 35.6726 34.3462 36.1853 34.2876C36.3952 34.2681 36.571 34.2559 36.7126 34.251C36.8981 34.251 37.0739 34.2339 37.2399 34.1997C37.8552 34.0776 39.0808 33.2769 40.9167 31.7974C42.2399 30.7427 43.5241 29.583 44.7692 28.3184C46.0192 27.0586 47.1472 25.7476 48.153 24.3853C48.3288 24.1362 48.4167 23.9727 48.4167 23.8945C48.4167 23.8701 48.4021 23.8579 48.3728 23.8579C48.2702 23.8579 48.0114 24.0239 47.5964 24.356L46.8127 24.8979C45.1916 26.0161 43.8635 26.856 42.8283 27.4175C41.9543 27.896 41.2976 28.1353 40.8581 28.1353C40.487 28.1353 40.1623 28.0498 39.884 27.8789C39.5373 27.6738 39.3298 27.4468 39.2614 27.1978C39.1882 26.9536 39.1516 26.7705 39.1516 26.6484C39.1516 26.375 39.2321 26.082 39.3933 25.7695C39.7399 25.1982 40.343 24.5586 41.2023 23.8506C42.0568 23.1426 42.965 22.5127 43.927 21.9609C45.1086 21.2871 46.0485 20.9502 46.7468 20.9502C46.9665 20.9502 47.1594 20.9819 47.3254 21.0454C47.5695 21.1479 47.8137 21.3433 48.0578 21.6313C48.2727 21.8511 48.4582 21.9609 48.6145 21.9609C48.7902 21.9609 49.0124 21.8413 49.281 21.6021C50.4235 20.6646 51.1657 20.1934 51.5075 20.1885C51.7224 20.1885 51.9201 20.2617 52.1008 20.4082C52.2814 20.5547 52.3937 20.7085 52.4377 20.8696C52.4816 21.0259 52.5036 21.1431 52.5036 21.2212C52.5036 21.3774 52.4646 21.5337 52.3864 21.6899C52.196 21.9878 51.9519 22.3003 51.654 22.6274C51.361 22.9692 50.9655 23.4844 50.4675 24.1729C48.9782 26.248 47.1301 28.3623 44.923 30.5156C43.3117 32.0928 41.7175 33.4404 40.1403 34.5586C39.8278 34.7783 39.4201 35.0298 38.9172 35.313C38.0627 35.8013 37.3522 36.0454 36.7858 36.0454ZM41.6198 26.0845C41.6638 26.0845 41.7419 26.0674 41.8542 26.0332C42.5378 25.7744 43.5607 25.2202 44.923 24.3706C45.4797 24.0728 45.9729 23.7676 46.4025 23.4551C46.7883 23.1719 46.9812 22.957 46.9812 22.8105C46.9812 22.7275 46.9079 22.6641 46.7614 22.6201L46.6662 22.6128C46.2365 22.6128 45.4919 22.9521 44.4323 23.6309C43.9294 23.9531 43.5266 24.2314 43.2238 24.4658C42.1008 25.3301 41.5393 25.8501 41.5393 26.0259C41.5393 26.0601 41.5661 26.0796 41.6198 26.0845ZM51.205 28.4575L51.0951 28.4502C50.7631 28.3574 50.5238 28.1597 50.3773 27.8569C50.2309 27.5542 50.1576 27.2905 50.1576 27.0659C50.1576 26.7729 50.2821 26.4678 50.5312 26.1504C50.6874 25.96 50.851 25.7744 51.0219 25.5938C51.1537 25.4473 51.2709 25.313 51.3734 25.1909C51.8129 24.6489 52.2743 24.1167 52.7577 23.5942C53.0556 23.272 53.3461 22.9473 53.6293 22.6201C54.977 21.0234 55.8095 20.1519 56.1269 20.0054C56.2001 19.9858 56.2709 19.9761 56.3393 19.9761C56.5004 19.9761 56.6518 20.0273 56.7934 20.1299C57.1303 20.3789 57.2987 20.6987 57.2987 21.0894C57.2987 21.436 57.0863 21.8169 56.6615 22.2319C56.4467 22.4468 56.0512 22.8032 55.475 23.3013C55.2016 23.5356 54.9623 23.7969 54.7572 24.085C55.2309 23.9043 56.0048 23.4648 57.079 22.7666C58.0019 22.1562 58.7196 21.751 59.2323 21.5508C59.5546 21.4238 59.8695 21.3604 60.1771 21.3604C60.5434 21.3604 60.89 21.4995 61.2172 21.7778C61.4809 22.0269 61.6151 22.2417 61.62 22.4224C61.6298 22.5981 61.6347 22.7056 61.6347 22.7446C61.6347 23.0132 61.5834 23.2891 61.4809 23.5723C61.3588 23.8945 61.2221 24.2046 61.0707 24.5024C60.9828 24.6831 60.9022 24.8564 60.829 25.0225C60.6386 25.4229 60.5434 25.7769 60.5434 26.0845C60.5434 26.3188 60.6483 26.4556 60.8583 26.4946C61.2343 26.4653 61.8178 26.2725 62.6088 25.916C63.4047 25.5596 64.1811 25.1909 64.9379 24.8101C66.3197 24.1118 67.2353 23.7627 67.6845 23.7627C67.8358 23.7627 67.9115 23.8237 67.9115 23.9458C67.8529 24.312 67.0155 25.0322 65.3993 26.1064C64.8036 26.502 64.3764 26.7754 64.1176 26.9268C62.6283 27.8154 61.4906 28.2598 60.7045 28.2598C60.4506 28.2598 60.2211 28.2109 60.016 28.1133C59.4545 27.7422 59.1127 27.3516 58.9906 26.9414C58.8734 26.5264 58.8148 26.1968 58.8148 25.9526C58.8148 25.5718 58.9003 25.186 59.0712 24.7954C59.3202 24.2485 59.4447 23.8579 59.4447 23.6235C59.4447 23.5161 59.4032 23.4575 59.3202 23.4478C58.8222 23.5161 57.6063 24.2412 55.6728 25.623C55.1308 26.0088 54.2519 26.6484 53.036 27.542C52.2206 28.1523 51.6103 28.4575 51.205 28.4575ZM69.8282 28.2231C68.4024 28.2231 67.4015 27.5591 66.8253 26.231C66.6788 25.8452 66.6056 25.4717 66.6056 25.1104C66.6056 24.8662 66.6373 24.6294 66.7008 24.3999C66.8619 23.8237 67.15 23.2939 67.565 22.8105C67.985 22.3271 68.4488 21.9097 68.9566 21.5581C69.777 20.9771 70.5728 20.6865 71.3443 20.6865C71.8326 20.6865 72.2794 20.8037 72.6847 21.0381C73.129 21.3408 73.3585 21.5947 73.3731 21.7998C73.3927 22.0049 73.4024 22.1221 73.4024 22.1514C73.4024 22.5078 73.2608 22.8813 72.9776 23.272C72.6212 23.6919 72.1378 24.0703 71.5274 24.4072C70.7511 24.8369 70.0968 25.0518 69.5645 25.0518C69.3302 25.0518 69.1056 25.0249 68.8907 24.9712C68.7101 24.9321 68.5538 24.9126 68.422 24.9126H68.3487C68.1583 24.9565 68.0582 25.0347 68.0484 25.147C68.0436 25.2544 68.0411 25.3228 68.0411 25.3521C68.0411 25.5278 68.0826 25.7134 68.1656 25.9087C68.2633 26.1284 68.3902 26.2969 68.5465 26.4141C68.8639 26.6094 69.2472 26.707 69.6964 26.707C70.3019 26.707 71.0343 26.5581 71.8937 26.2603C72.9093 25.9136 74.1397 25.374 75.5851 24.6416C75.8048 24.5293 76.005 24.4316 76.1856 24.3486C76.2687 24.2949 76.5128 24.1777 76.9181 23.9971C77.3478 23.8115 77.6798 23.7188 77.9142 23.7188C78.0948 23.7188 78.1949 23.7969 78.2145 23.9531C78.1998 24.2852 77.6065 24.8223 76.4347 25.5645C74.6769 26.6826 73.129 27.4663 71.7911 27.9155C71.127 28.1206 70.4728 28.2231 69.8282 28.2231ZM69.6378 23.3232C69.794 23.3232 70.0479 23.2402 70.3995 23.0742C70.5753 22.9912 70.7022 22.9277 70.7804 22.8838C71.3517 22.5713 71.6373 22.3833 71.6373 22.3198C71.6373 22.3052 71.6227 22.2979 71.5934 22.2979C71.5152 22.2979 71.3687 22.3345 71.1539 22.4077C70.2066 22.7397 69.6573 23.0352 69.506 23.2939C69.5401 23.3135 69.5841 23.3232 69.6378 23.3232ZM80.8782 33.8042C80.761 33.814 80.6048 33.7773 80.4095 33.6943C79.9261 33.4551 79.6624 33.2036 79.6185 32.9399C79.5794 32.6763 79.5574 32.5151 79.5525 32.4565C79.4305 30.9673 80.6609 28.6138 83.2439 25.396C84.3572 23.9702 85.0213 23.0278 85.2361 22.5688C84.8455 22.8569 84.472 23.1572 84.1155 23.4697C83.7005 23.8311 83.2537 24.1802 82.7752 24.5171C82.1941 24.9126 81.6155 25.3179 81.0394 25.7329C80.0628 26.4458 79.0423 27.1318 77.9778 27.791C77.4114 28.1279 76.8792 28.3159 76.3811 28.355C76.1224 28.3794 75.8733 28.355 75.6341 28.2817C75.2679 28.1841 74.9676 27.918 74.7332 27.4834C74.66 27.3271 74.6185 27.1709 74.6087 27.0146C74.594 26.8438 74.616 26.6729 74.6746 26.502C74.7967 26.1846 74.9847 25.8843 75.2386 25.6011C75.4876 25.3179 75.7366 25.064 75.9856 24.8394C76.9134 23.9165 77.7728 23.2744 78.5638 22.9131C79.3255 22.5664 80.0481 22.3638 80.7317 22.3052C81.1761 22.271 81.6424 22.2783 82.1307 22.3271C82.3943 22.3564 82.6385 22.3638 82.8631 22.3491C83.41 22.3003 84.0179 22.0195 84.6868 21.5068C85.6292 20.8037 86.5569 20.0811 87.47 19.3389C89.0325 18.0303 90.5437 16.668 92.0037 15.252L92.8387 14.4536C93.366 13.9067 93.8079 13.6187 94.1644 13.5894C94.4671 13.5649 94.7674 13.7139 95.0652 14.0361C95.1971 14.1777 95.2679 14.3169 95.2776 14.4536C95.2825 14.5122 95.2776 14.5684 95.263 14.6221C95.2093 14.8125 95.097 14.9883 94.9261 15.1494C94.8333 15.2324 94.5794 15.4351 94.1644 15.7573C90.971 18.355 87.7483 21.8486 84.4964 26.2383C82.2747 29.1143 81.1761 31.2188 81.2005 32.5518L81.2151 32.8008C81.2542 33.3086 81.2103 33.6113 81.0833 33.709C81.0052 33.7676 80.9368 33.7993 80.8782 33.8042ZM76.9598 26.4946C77.0916 26.4849 77.2527 26.4287 77.4432 26.3262C77.5311 26.3018 77.9363 26.0771 78.659 25.6523C80.368 24.6611 81.2249 24.0386 81.2298 23.7847C81.2249 23.7261 81.1687 23.7017 81.0613 23.7114C80.9051 23.7212 80.7122 23.7651 80.4827 23.8433C80.1214 23.9702 79.8284 24.0874 79.6038 24.1948C78.764 24.5806 78.0608 25.0029 77.4944 25.4619C77.1526 25.7354 76.9207 26.0186 76.7986 26.3115L76.7913 26.3921C76.8011 26.4702 76.8572 26.5044 76.9598 26.4946ZM94.9436 28.6479C94.7336 28.6479 94.5212 28.543 94.3063 28.333C94.0671 28.0156 93.9475 27.7227 93.9475 27.4541C93.9475 27.1758 94.05 26.8975 94.2551 26.6191C94.4406 26.375 94.6921 26.0918 95.0095 25.7695C96.7624 23.8164 98.5861 21.895 100.481 20.0054C104.734 15.772 108.874 12.5664 112.903 10.3887C113.972 9.83203 114.8 9.55371 115.385 9.55371C115.776 9.55371 116.169 9.67578 116.565 9.91992C116.789 10.0518 116.902 10.2227 116.902 10.4326L116.894 10.5205C116.587 11.3213 115.554 12.3857 113.796 13.7139C113.073 14.2607 112.407 14.749 111.797 15.1787C111.469 15.4082 111.189 15.6084 110.954 15.7793C110.071 16.4385 108.611 17.5103 106.574 18.9946C106.184 19.2583 105.83 19.561 105.512 19.9028L105.505 19.9102C105.505 19.9736 105.805 20.02 106.406 20.0493C106.484 20.0493 106.533 20.0518 106.552 20.0566C107.387 20.3008 107.9 20.6084 108.091 20.9795C108.286 21.3506 108.383 21.6631 108.383 21.917C108.383 22.2979 108.259 22.7251 108.01 23.1987C107.644 23.8042 107.173 24.3462 106.596 24.8247C106.02 25.2983 105.437 25.7256 104.846 26.1064C104.372 26.4043 103.806 26.7119 103.147 27.0293C102.492 27.3516 101.799 27.6348 101.067 27.8789C100.339 28.123 99.7653 28.2622 99.3454 28.2964C98.9304 28.3354 98.6545 28.355 98.5178 28.355C97.8977 28.355 97.3557 28.2305 96.8918 27.9814C96.6574 27.835 96.4719 27.7617 96.3352 27.7617C96.1887 27.7617 95.9934 27.9131 95.7492 28.2158C95.5295 28.46 95.3488 28.5918 95.2072 28.6113C95.0656 28.6357 94.9777 28.6479 94.9436 28.6479ZM97.9172 27.0806C98.8352 27.0806 99.968 26.7998 101.316 26.2383C103.928 25.1494 105.693 23.8628 106.611 22.3784C106.777 22.144 106.86 21.9243 106.86 21.7192C106.86 21.4409 106.64 21.3018 106.201 21.3018L106.003 21.3091C104.529 21.4897 102.751 22.2832 100.671 23.6895C99.0109 24.8125 97.9562 25.6255 97.507 26.1284C97.2824 26.3823 97.1701 26.585 97.1701 26.7363C97.1701 26.7949 97.1848 26.8486 97.2141 26.8975C97.2873 27.0195 97.5217 27.0806 97.9172 27.0806ZM102.641 20.02C102.89 20.02 104.492 18.9482 107.446 16.8047L109.797 15.0835C111.13 14.1265 112.451 13.1426 113.759 12.1318C114.341 11.6777 114.631 11.4116 114.631 11.3335C114.631 11.3188 114.614 11.3115 114.58 11.3115C114.477 11.3115 114.126 11.4604 113.525 11.7583C111.684 12.7007 109.839 13.8604 107.988 15.2373C106.137 16.6094 104.482 18.0303 103.022 19.5C102.754 19.7734 102.619 19.9395 102.619 19.998C102.619 20.0127 102.627 20.02 102.641 20.02ZM108.227 35.1006C108.052 35.1006 107.842 35.0103 107.598 34.8296C107.275 34.5806 107.112 34.3633 107.107 34.1777C107.102 33.9971 107.1 33.8921 107.1 33.8628C107.1 33.3306 107.339 32.7178 107.817 32.0244C108.149 31.5361 108.511 31.0625 108.901 30.6035C109.287 30.1494 109.68 29.7002 110.08 29.2559C111.218 27.9863 111.787 27.2808 111.787 27.1392C111.787 27.1245 111.78 27.1172 111.765 27.1172C111.702 27.1172 111.514 27.2173 111.201 27.4175C110.581 27.8374 109.973 28.0474 109.377 28.0474C109.275 28.0474 109.177 28.04 109.084 28.0254C108.581 27.9619 108.181 27.5933 107.883 26.9194C107.8 26.6558 107.759 26.4092 107.759 26.1797C107.759 25.7012 107.93 25.2227 108.271 24.7441C108.491 24.4316 108.735 24.1265 109.004 23.8286C109.16 23.6479 109.314 23.4648 109.465 23.2793C109.529 23.1719 109.766 22.8838 110.176 22.415C110.859 21.624 111.413 21.2114 111.838 21.1772C112.161 21.1968 112.39 21.2944 112.527 21.4702C112.663 21.6411 112.732 21.834 112.732 22.0488C112.732 22.332 112.627 22.6079 112.417 22.8765C112.178 23.1597 111.902 23.4209 111.589 23.6602C111.355 23.8457 111.128 24.0483 110.908 24.2681C110.703 24.4878 110.486 24.7417 110.256 25.0298C109.856 25.5327 109.656 25.8818 109.656 26.0771C109.656 26.1943 109.717 26.2529 109.839 26.2529C110.019 26.2529 110.378 26.1138 110.915 25.8354C111.97 25.269 113.059 24.605 114.182 23.8433C115.305 23.0767 116.299 22.2832 117.163 21.4629C117.251 21.3799 117.334 21.2969 117.412 21.2139C117.832 20.7451 118.203 20.5107 118.525 20.5107C118.706 20.5107 118.904 20.5669 119.119 20.6792L119.287 20.8403C119.419 21.0454 119.485 21.2407 119.485 21.4263C119.485 21.5483 119.458 21.6655 119.404 21.7778C119.263 22.061 119.06 22.3271 118.796 22.5762C118.406 22.957 118.013 23.3354 117.617 23.7114C116.035 25.2056 114.233 27.0586 112.212 29.2705C111.206 30.374 110.288 31.4946 109.458 32.6323C109.189 33.0083 109.031 33.2915 108.982 33.4819C108.953 33.5894 108.928 33.7065 108.909 33.8335C108.889 33.98 108.852 34.1802 108.799 34.4341C108.691 34.8784 108.501 35.1006 108.227 35.1006Z" fill="white"></path><path d="M249.976 29.5654C249.976 29.5654 244.326 34.3928 236.297 34.0814C229.424 33.8144 224.887 29.8991 224.442 21.6457H245.839C251.8 21.0673 251.088 15.2832 250.821 13.2588C249.108 5.31688 243.703 0 234.762 0C223.752 0 215.367 7.94194 215.367 20.2442C215.367 31.701 223.686 40.5996 235.919 40.4883C239.233 40.4661 242.302 39.5317 245.616 37.3294C250.22 34.2594 250.02 29.6544 250.02 29.6544L250.042 29.6766L249.976 29.5654ZM234.695 6.69615C237.142 6.74064 241.746 7.80847 242.614 13.0364C242.614 13.0364 242.614 13.0586 242.614 13.0808C242.614 13.1253 242.636 13.1698 242.636 13.2143C242.68 13.6815 242.636 14.7938 240.834 14.8606H224.776C225.932 8.47585 231.715 6.65166 234.695 6.69615Z" fill="#FF0000"></path><path d="M185.474 8.40882C185.63 8.14186 185.563 7.8749 184.963 7.69693C184.674 7.60795 184.006 7.45222 183.183 7.40773C182.605 7.27425 180.581 7.16302 178.779 7.9194C176.6 8.8315 176.288 9.49889 175.777 13.5032C175.688 15.9948 177.423 19.0203 178.468 20.9557C179.158 22.2238 180.047 23.4918 180.225 25.2715C180.915 21.156 182.405 12.035 182.405 12.035C182.427 11.946 182.449 11.857 182.472 11.7903C182.516 11.6568 182.561 11.5233 182.583 11.4121C182.872 10.5 183.228 9.78809 183.673 9.27642C183.806 9.29867 183.962 9.34316 184.14 9.38765C184.14 9.38765 184.963 9.00947 185.363 8.56454C185.496 8.56454 185.608 8.56454 185.741 8.58679C185.719 8.60903 185.63 8.52005 185.474 8.40882Z" fill="#FF0000"></path><path d="M175.355 15.5054C175.222 16.8624 174.777 22.1125 174.71 22.6909L174.132 29.8543C174.065 30.0767 173.175 28.1413 173.131 28.386C172.708 28.9644 172.864 29.7875 173.309 30.5884C173.754 31.9899 174.755 33.0355 175.755 32.813C176.156 32.9465 176.512 32.9243 176.845 32.7463C179.603 31.3003 179.737 26.9177 179.715 26.3171C179.626 24.137 177.913 22.157 177.068 20.3996C176.4 19.0203 175.533 16.9959 175.355 15.5054Z" fill="white"></path><path d="M190.19 30.4103C192.17 28.4749 191.97 3.4033 196.952 1.60134C199.443 0.711489 202.09 0.733736 202.846 0.911706C205.204 1.44562 206.271 2.53569 206.271 2.53569C203.669 2.06852 206.36 2.53569 202.846 7.47438C199.332 12.4131 199.465 32.6795 194.972 36.2389C193.037 37.7961 188.211 32.3458 190.19 30.4103Z" fill="#FF0000"></path><path d="M162.321 27.6739L163.589 21C163.723 20.2659 163.834 19.5985 163.878 19.5318C163.878 19.5318 164.39 16.573 166.08 15.5497C167.304 14.8155 168.972 15.0602 169.394 15.1715C170.729 15.4607 171.307 16.0836 171.307 16.0836C169.839 15.8166 169.172 17.0624 168.683 19.0201L167.415 25.694C167.281 26.4281 167.17 27.0955 167.126 27.1622C167.126 27.1622 166.614 30.121 164.924 31.1443C163.723 31.9007 161.854 29.6538 162.321 27.6739Z" fill="white"></path><path d="M150.755 19.4209C154.092 19.4209 156.783 21.868 156.783 25.2494C156.783 28.6531 154.092 31.1225 150.755 31.1225C147.419 31.1225 144.75 28.6531 144.75 25.2494C144.75 21.868 147.419 19.4209 150.755 19.4209ZM150.755 29.2538C152.868 29.2538 154.581 27.5853 154.581 25.2494C154.581 22.9358 152.868 21.2896 150.755 21.2896C148.665 21.2896 146.93 22.9358 146.93 25.2494C146.952 27.5853 148.665 29.2538 150.755 29.2538Z" fill="white"></path><path d="M135.742 19.6877C134.852 19.6877 134.496 20.1549 134.496 20.8223C134.496 21.0003 134.496 21.1782 134.496 21.1782H134.474C134.474 21.1782 133.673 19.443 130.893 19.443C127.779 19.4208 126 21.8011 126 25.0046C126 28.2303 127.891 30.7219 130.982 30.7219C132.606 30.7219 133.651 30.099 134.319 29.0312H134.363C134.363 29.0312 134.319 29.3871 134.319 29.7431V30.4995C134.319 32.7463 132.739 33.6139 130.782 33.6139C128.513 33.5917 127.357 32.8353 127.357 32.8353C127.357 32.8353 127.601 35.1044 129.981 35.4604C130.27 35.4826 130.537 35.5271 130.827 35.5271C133.651 35.5271 136.454 34.1256 136.454 30.4327V21.9569V21.9346V19.6877H135.742ZM131.405 28.8532C129.403 28.8532 128.18 27.2737 128.18 24.9601C128.18 22.691 129.292 21.2672 131.227 21.2672C132.94 21.2672 134.385 22.1126 134.385 25.0269C134.385 27.9189 132.94 28.8532 131.405 28.8532Z" fill="white"></path><path d="M142.659 19.6654C141.903 19.8656 141.058 20.266 140.413 21.2671C140.213 20.5775 139.723 19.8433 138.5 19.8433L138.522 30.833H140.657V26.2725C140.657 25.5829 140.724 24.9155 140.924 24.2704C141.436 22.6241 142.681 21.6453 144.06 21.6453C144.416 21.6453 144.706 21.712 144.706 21.712C144.706 21.712 144.772 19.3094 142.659 19.6654Z" fill="white"></path><path d="M191.836 32.1235C191.836 32.1235 188.9 13.2586 188.877 13.1474C188.877 13.1474 188.21 9.20981 185.964 7.87503C184.874 7.20764 183.562 6.91844 182.16 6.96293C179.18 7.09641 177.912 8.56467 177.912 8.56467C179.847 8.20873 180.759 9.85496 181.382 12.4578L183.962 29.4762C184.14 30.4551 184.296 31.3227 184.34 31.4339C184.34 31.4339 185.007 35.3715 187.254 36.7063C188.344 37.3737 190.457 37.8408 192.369 37.5294C194.149 37.2402 195.305 36.0166 195.305 36.0166C193.237 36.9065 192.458 34.7264 191.836 32.1235Z" fill="#FF0000"></path><path d="M213.855 26.2504L211.03 11.2118C210.785 9.8993 210.585 8.72024 210.541 8.58677C210.541 8.58677 209.651 3.31438 206.626 1.51243C205.158 0.622576 203.401 0.222142 201.533 0.288881C197.529 0.466852 195.816 2.44678 195.816 2.44678C198.419 1.9796 199.62 4.18199 200.465 7.67467L203.29 22.7132C204.469 28.9644 206.604 35.7495 209.896 38.9085C211.541 40.488 215.167 41.2889 217.725 40.8662C220.127 40.4658 221.239 39.4869 221.239 39.4869C217.347 38.4191 214.678 29.7653 213.855 26.2504Z" fill="#FF0000"></path><path d="M163.277 28.6308C163.277 28.6308 161.787 23.5808 161.498 22.691C161.209 21.7789 161.097 20.3774 159.785 19.5988C158.829 19.0203 157.539 19.2206 157.205 19.2873C156.16 19.5098 155.715 19.9992 155.715 19.9992C156.849 19.799 157.383 20.7556 157.761 22.2906C157.761 22.2906 159.318 27.5407 159.54 28.2303C159.763 28.92 160.163 30.6107 161.253 31.3226C162.187 31.9232 163.5 31.7008 163.833 31.634C164.879 31.4116 165.323 30.9221 165.323 30.9221C164.167 31.1224 163.655 30.1658 163.277 28.6308Z" fill="white"></path><path d="M174.843 29.3872L173.241 20.9336C173.108 20.1995 172.997 19.5321 172.952 19.4653C172.952 19.4653 172.441 16.5066 170.75 15.4833C169.527 14.7491 167.859 14.9938 167.436 15.1051C166.102 15.3943 165.523 16.0172 165.523 16.0172C166.991 15.7502 167.659 16.996 168.148 18.9537L169.749 27.4073C169.883 28.1414 169.994 28.8088 170.039 28.8755C170.039 28.8755 170.817 32.1235 172.53 33.1468C173.753 33.881 174.732 33.614 175.154 33.5028C176.489 33.2136 177.467 32.3237 177.467 32.3237C175.999 32.5907 175.332 31.3449 174.843 29.3872Z" fill="white"></path></svg>