<?xml version="1.0" encoding="utf-8"?>
<!-- Generator: Adobe Illustrator 22.1.0, SVG Export Plug-In . SVG Version: 6.00 Build 0)  -->
<svg version="1.1" id="Layer_1" xmlns="http://www.w3.org/2000/svg" xmlns:xlink="http://www.w3.org/1999/xlink" x="0px" y="0px"
	 viewBox="0 0 194.7 142.2" style="enable-background:new 0 0 194.7 142.2;" xml:space="preserve">
<style type="text/css">
	.st0{fill:#ED362D;}
	.st1{fill:#FFFFFF;}
	.st2{fill:#010101;}
</style>
<g>
	<polygon class="st0" points="0,97.6 194.7,97.6 97.1,0 	"/>
	<g>
		<path class="st1" d="M93,94.8c-5.5,2.7-12.7,4-21.6,4c-11.6,0-20.7-3.4-27.4-10.2c-6.6-6.8-10-15.9-10-27.3
			c0-12.1,3.7-21.9,11.2-29.4c7.5-7.5,17.2-11.3,29.1-11.3c7.4,0,16.7,2.5,21.8,4.4l-4.8,14.8c-5.1-3-10.8-4.5-17.3-4.5
			c-7.1,0-11.2,2.2-15.5,6.7c-4.4,4.5-6.5,10.5-6.5,18.1c0,7.3,2.1,13.1,6.2,17.5c4.1,4.3,9.7,6.5,16.6,6.5c6.6,0,12.7-1.6,18.2-4.9
			V94.8z"/>
		<path class="st1" d="M160.7,39.1h-21.6v58.4H122V39.1h-21.5V21.9h60.1V39.1z"/>
	</g>
	<g>
		<path class="st2" d="M29.8,119.7c-1.1,0.5-2.5,0.8-4.2,0.8c-2.3,0-4.1-0.7-5.4-2c-1.3-1.3-2-3.1-2-5.3c0-2.4,0.7-4.3,2.2-5.8
			c1.5-1.5,3.4-2.2,5.7-2.2c1.4,0,2.7,0.2,3.7,0.5v3.2c-1-0.6-2.1-0.9-3.4-0.9c-1.4,0-2.5,0.4-3.4,1.3c-0.9,0.9-1.3,2.1-1.3,3.6
			c0,1.4,0.4,2.6,1.2,3.4c0.8,0.9,1.9,1.3,3.3,1.3c1.3,0,2.5-0.3,3.6-1V119.7z"/>
		<path class="st2" d="M34.8,107.9c-0.6,0-1-0.2-1.4-0.5c-0.4-0.3-0.5-0.7-0.5-1.2c0-0.5,0.2-0.9,0.5-1.2c0.4-0.3,0.8-0.5,1.4-0.5
			c0.6,0,1,0.2,1.4,0.5c0.3,0.3,0.5,0.7,0.5,1.2c0,0.5-0.2,0.9-0.5,1.2C35.8,107.8,35.3,107.9,34.8,107.9z M36.4,120.2h-3.3v-10.6
			h3.3V120.2z"/>
		<path class="st2" d="M46.6,120.1c-0.5,0.3-1.2,0.4-2.2,0.4c-2.3,0-3.5-1.2-3.5-3.6V112h-1.7v-2.4H41v-2.3l3.3-0.9v3.2h2.4v2.4
			h-2.4v4.3c0,1.1,0.4,1.7,1.3,1.7c0.3,0,0.7-0.1,1.1-0.3V120.1z"/>
		<path class="st2" d="M59.6,109.6L55.3,121c-1,2.7-2.6,4.1-4.7,4.1c-0.8,0-1.4-0.1-2-0.3v-2.6c0.4,0.3,0.9,0.4,1.4,0.4
			c0.8,0,1.4-0.4,1.8-1.2l0.6-1.3l-4.3-10.6h3.6l2,6.4c0.1,0.4,0.2,0.9,0.3,1.4h0c0.1-0.4,0.2-0.9,0.3-1.4l2-6.5H59.6z"/>
		<path class="st2" d="M81.6,120.2h-3.8l-2.3-3.8c-0.2-0.3-0.3-0.5-0.5-0.8c-0.2-0.2-0.3-0.4-0.5-0.6c-0.2-0.2-0.3-0.3-0.5-0.4
			c-0.2-0.1-0.4-0.1-0.6-0.1h-0.9v5.7h-3.3v-14.8h5.3c3.6,0,5.4,1.3,5.4,4c0,0.5-0.1,1-0.2,1.4c-0.2,0.4-0.4,0.8-0.7,1.2
			c-0.3,0.4-0.6,0.7-1,0.9c-0.4,0.3-0.9,0.5-1.4,0.6v0c0.2,0.1,0.4,0.2,0.6,0.3c0.2,0.2,0.4,0.3,0.6,0.5c0.2,0.2,0.4,0.4,0.6,0.7
			c0.2,0.2,0.3,0.5,0.5,0.7L81.6,120.2z M72.5,107.9v4.1h1.4c0.7,0,1.3-0.2,1.7-0.6c0.4-0.4,0.7-0.9,0.7-1.6c0-1.3-0.8-1.9-2.3-1.9
			H72.5z"/>
		<path class="st2" d="M88.8,120.5c-1.8,0-3.1-0.5-4.2-1.5c-1-1-1.5-2.3-1.5-4c0-1.8,0.5-3.1,1.6-4.1c1-1,2.5-1.5,4.2-1.5
			c1.8,0,3.1,0.5,4.1,1.5c1,1,1.5,2.3,1.5,3.9c0,1.8-0.5,3.1-1.5,4.2C92,120,90.5,120.5,88.8,120.5z M88.8,111.9
			c-0.8,0-1.4,0.3-1.8,0.8c-0.4,0.5-0.6,1.3-0.6,2.3c0,2,0.8,3,2.5,3c1.6,0,2.3-1,2.3-3.1C91.2,112.9,90.4,111.9,88.8,111.9z"/>
		<path class="st2" d="M102.7,120.5c-1.8,0-3.1-0.5-4.2-1.5c-1-1-1.5-2.3-1.5-4c0-1.8,0.5-3.1,1.6-4.1c1-1,2.5-1.5,4.2-1.5
			c1.8,0,3.1,0.5,4.1,1.5c1,1,1.5,2.3,1.5,3.9c0,1.8-0.5,3.1-1.5,4.2C105.9,120,104.5,120.5,102.7,120.5z M102.8,111.9
			c-0.8,0-1.4,0.3-1.8,0.8c-0.4,0.5-0.6,1.3-0.6,2.3c0,2,0.8,3,2.5,3c1.6,0,2.3-1,2.3-3.1C105.2,112.9,104.4,111.9,102.8,111.9z"/>
		<path class="st2" d="M118.6,107c-0.4-0.2-0.8-0.2-1.2-0.2c-1,0-1.6,0.6-1.6,1.7v1.1h2.4v2.4h-2.4v8.2h-3.3V112h-1.8v-2.4h1.8v-1.3
			c0-1.2,0.4-2.2,1.2-2.9c0.8-0.7,1.9-1.1,3.2-1.1c0.7,0,1.2,0.1,1.7,0.2V107z"/>
		<path class="st2" d="M122.5,107.9c-0.6,0-1-0.2-1.4-0.5c-0.4-0.3-0.5-0.7-0.5-1.2c0-0.5,0.2-0.9,0.5-1.2c0.4-0.3,0.8-0.5,1.4-0.5
			c0.6,0,1,0.2,1.4,0.5c0.3,0.3,0.5,0.7,0.5,1.2c0,0.5-0.2,0.9-0.5,1.2C123.5,107.8,123.1,107.9,122.5,107.9z M124.1,120.2h-3.3
			v-10.6h3.3V120.2z"/>
		<path class="st2" d="M138.2,120.2h-3.3v-5.9c0-1.6-0.6-2.5-1.8-2.5c-0.6,0-1,0.2-1.4,0.7c-0.4,0.4-0.5,1-0.5,1.7v6h-3.3v-10.6h3.3
			v1.7h0c0.8-1.3,1.9-1.9,3.4-1.9c2.3,0,3.5,1.5,3.5,4.4V120.2z"/>
		<path class="st2" d="M152.2,119c0,2-0.6,3.5-1.7,4.6c-1.1,1.1-2.8,1.6-4.9,1.6c-1.4,0-2.6-0.2-3.4-0.6v-2.7c1.1,0.6,2.2,1,3.3,1
			c1.1,0,2-0.3,2.6-0.9c0.6-0.6,0.9-1.4,0.9-2.4v-0.8h0c-0.7,1.2-1.8,1.8-3.3,1.8c-1.4,0-2.4-0.5-3.2-1.4c-0.8-1-1.2-2.2-1.2-3.8
			c0-1.8,0.4-3.2,1.3-4.3c0.9-1.1,2-1.6,3.5-1.6c1.3,0,2.3,0.5,2.9,1.5h0v-1.2h3.3V119z M149,115.1v-0.8c0-0.7-0.2-1.2-0.6-1.7
			c-0.4-0.5-0.9-0.7-1.5-0.7c-0.7,0-1.3,0.3-1.7,0.8c-0.4,0.6-0.6,1.4-0.6,2.4c0,0.9,0.2,1.6,0.6,2.1c0.4,0.5,0.9,0.8,1.6,0.8
			c0.7,0,1.2-0.3,1.6-0.8C148.7,116.7,149,116,149,115.1z"/>
		<path class="st2" d="M176.4,118.4l-1.8,2.2c-0.9-0.4-1.7-1-2.5-1.7c-0.6,0.6-1.3,1-2,1.2c-0.7,0.3-1.5,0.4-2.5,0.4
			c-1.9,0-3.3-0.5-4.3-1.6c-0.7-0.8-1.1-1.8-1.1-2.8c0-1,0.3-1.8,0.9-2.6c0.6-0.8,1.4-1.4,2.6-2c-0.5-0.6-0.9-1.2-1.2-1.8
			c-0.3-0.6-0.4-1.1-0.4-1.6c0-0.9,0.4-1.7,1.1-2.3c0.7-0.6,1.8-1,3.1-1c1.3,0,2.3,0.3,3.1,1c0.7,0.7,1.1,1.5,1.1,2.4
			c0,0.6-0.2,1.2-0.5,1.7c-0.4,0.6-1.1,1.2-2.2,1.9l2.1,2.8c0.2-0.4,0.5-1,0.6-1.7l2.6,0.6c-0.3,0.9-0.5,1.6-0.7,2
			c-0.2,0.4-0.4,0.8-0.6,1.1c0.3,0.3,0.7,0.6,1.3,1C175.8,118,176.2,118.2,176.4,118.4z M167.4,113.3c-0.7,0.3-1.2,0.7-1.5,1.2
			c-0.3,0.5-0.5,1-0.5,1.5c0,0.6,0.2,1.1,0.6,1.5c0.4,0.4,1,0.6,1.6,0.6c0.5,0,0.9-0.1,1.3-0.3c0.4-0.2,0.9-0.5,1.4-0.9L167.4,113.3
			z M168.5,110.1l0.8-0.6c0.6-0.4,0.9-0.9,0.9-1.3c0-0.4-0.1-0.7-0.4-1c-0.3-0.3-0.7-0.4-1.1-0.4c-0.5,0-0.8,0.1-1.1,0.3
			c-0.3,0.2-0.4,0.5-0.4,0.8c0,0.4,0.2,0.8,0.7,1.3L168.5,110.1z"/>
		<path class="st2" d="M59.6,141.9h-8.9v-14.8h8.5v2.7h-5.2v3.3h4.8v2.7h-4.8v3.4h5.5V141.9z"/>
		<path class="st2" d="M72.9,131.3l-3.5,5.1l3.5,5.5h-3.8l-1.5-2.9c-0.1-0.2-0.3-0.5-0.4-1h0c-0.1,0.3-0.2,0.6-0.4,0.9l-1.5,2.9
			h-3.8l3.6-5.3l-3.4-5.3h3.8l1.5,3c0.2,0.4,0.3,0.7,0.4,1h0c0.1-0.3,0.3-0.7,0.4-1l1.5-2.9H72.9z"/>
		<path class="st2" d="M81.9,141.8c-0.5,0.3-1.2,0.4-2.2,0.4c-2.3,0-3.5-1.2-3.5-3.6v-4.8h-1.7v-2.4h1.7v-2.3l3.3-0.9v3.2h2.4v2.4
			h-2.4v4.3c0,1.1,0.4,1.7,1.3,1.7c0.3,0,0.7-0.1,1.1-0.3V141.8z"/>
		<path class="st2" d="M94.3,137.6h-6.9c0.1,1.5,1.1,2.3,2.9,2.3c1.2,0,2.2-0.3,3.1-0.8v2.4c-1,0.5-2.2,0.8-3.8,0.8
			c-1.7,0-3-0.5-4-1.4c-0.9-0.9-1.4-2.3-1.4-4c0-1.8,0.5-3.1,1.5-4.2c1-1,2.3-1.5,3.8-1.5c1.5,0,2.7,0.5,3.6,1.4
			c0.8,0.9,1.3,2.2,1.3,3.7V137.6z M91.2,135.6c0-1.5-0.6-2.3-1.8-2.3c-0.5,0-1,0.2-1.4,0.7c-0.4,0.4-0.6,1-0.7,1.6H91.2z"/>
		<path class="st2" d="M104.2,134.3c-0.4-0.2-0.9-0.3-1.4-0.3c-0.7,0-1.3,0.3-1.7,0.8c-0.4,0.5-0.6,1.2-0.6,2.1v5.1h-3.3v-10.6h3.3
			v2h0c0.5-1.4,1.4-2.1,2.8-2.1c0.3,0,0.6,0,0.8,0.1V134.3z"/>
		<path class="st2" d="M108.4,129.7c-0.6,0-1-0.2-1.4-0.5c-0.4-0.3-0.5-0.7-0.5-1.2c0-0.5,0.2-0.9,0.5-1.2c0.4-0.3,0.8-0.5,1.4-0.5
			c0.6,0,1,0.2,1.4,0.5c0.3,0.3,0.5,0.7,0.5,1.2c0,0.5-0.2,0.9-0.5,1.2C109.4,129.5,109,129.7,108.4,129.7z M110,141.9h-3.3v-10.6
			h3.3V141.9z"/>
		<path class="st2" d="M118.9,142.2c-1.8,0-3.1-0.5-4.2-1.5c-1-1-1.5-2.3-1.5-4c0-1.8,0.5-3.1,1.6-4.1c1-1,2.5-1.5,4.2-1.5
			c1.8,0,3.1,0.5,4.1,1.5c1,1,1.5,2.3,1.5,3.9c0,1.8-0.5,3.1-1.5,4.2C122.1,141.7,120.7,142.2,118.9,142.2z M118.9,133.6
			c-0.8,0-1.4,0.3-1.8,0.8c-0.4,0.5-0.6,1.3-0.6,2.3c0,2,0.8,3,2.5,3c1.6,0,2.3-1,2.3-3.1C121.3,134.6,120.5,133.6,118.9,133.6z"/>
		<path class="st2" d="M134.7,134.3c-0.4-0.2-0.9-0.3-1.4-0.3c-0.7,0-1.3,0.3-1.7,0.8c-0.4,0.5-0.6,1.2-0.6,2.1v5.1h-3.3v-10.6h3.3
			v2h0c0.5-1.4,1.4-2.1,2.8-2.1c0.3,0,0.6,0,0.8,0.1V134.3z"/>
		<path class="st2" d="M136.6,141.6V139c0.5,0.3,1.1,0.6,1.6,0.7c0.5,0.2,1,0.2,1.5,0.2c0.6,0,1-0.1,1.4-0.2
			c0.3-0.2,0.5-0.4,0.5-0.7c0-0.2-0.1-0.4-0.2-0.5c-0.2-0.1-0.3-0.3-0.6-0.4c-0.2-0.1-0.5-0.2-0.8-0.3c-0.3-0.1-0.6-0.2-0.8-0.3
			c-0.4-0.2-0.8-0.3-1.1-0.5c-0.3-0.2-0.6-0.4-0.8-0.6c-0.2-0.2-0.4-0.5-0.5-0.8c-0.1-0.3-0.2-0.7-0.2-1.1c0-0.6,0.1-1.1,0.4-1.5
			c0.3-0.4,0.6-0.8,1-1c0.4-0.3,0.9-0.5,1.5-0.6c0.6-0.1,1.1-0.2,1.7-0.2c0.5,0,0.9,0,1.4,0.1c0.5,0.1,1,0.2,1.4,0.3v2.5
			c-0.4-0.2-0.9-0.4-1.3-0.5c-0.5-0.1-0.9-0.2-1.4-0.2c-0.2,0-0.4,0-0.6,0.1c-0.2,0-0.4,0.1-0.5,0.2c-0.1,0.1-0.3,0.2-0.3,0.3
			c-0.1,0.1-0.1,0.2-0.1,0.4c0,0.2,0.1,0.4,0.2,0.5s0.3,0.3,0.5,0.4c0.2,0.1,0.4,0.2,0.7,0.3c0.2,0.1,0.5,0.2,0.7,0.2
			c0.4,0.2,0.8,0.3,1.2,0.5c0.4,0.2,0.7,0.4,0.9,0.6c0.3,0.2,0.4,0.5,0.6,0.8c0.1,0.3,0.2,0.7,0.2,1.2c0,0.6-0.1,1.2-0.4,1.6
			c-0.3,0.4-0.6,0.8-1.1,1.1c-0.5,0.3-1,0.5-1.6,0.6c-0.6,0.1-1.2,0.2-1.8,0.2C138.7,142.2,137.6,142,136.6,141.6z"/>
	</g>
</g>
</svg>
